<?xml version="1.0" encoding="utf-8"?>
<!-- Generator: Adobe Illustrator 19.0.0, SVG Export Plug-In . SVG Version: 6.00 Build 0)  -->
<svg version="1.1" id="Layer_1" xmlns="http://www.w3.org/2000/svg" xmlns:xlink="http://www.w3.org/1999/xlink" x="0px" y="0px"
	 viewBox="-226 366.9 159 61.1" style="enable-background:new -226 366.9 159 61.1;" xml:space="preserve">
<style type="text/css">
	.st0{fill:#7098D0;}
</style>
<g>
	<g>
		<path class="st0" d="M-128.2,378.5c0,0.7,0,1.4,0,2.2c0,0.2-0.1,0.6-0.3,0.7c-0.2,0.1-0.5,0-0.7-0.1c-0.9-0.6-1.9-1.3-2.8-2
			c-0.6-0.5-1-0.4-1.6,0.1c-1.2,1.1-2.4,2.1-3.6,3.1c-0.2,0.2-0.6,0.3-0.8,0.3c-0.2,0-0.3-0.5-0.3-0.7c0.4-2.1-0.5-3.5-2.1-4.8
			c-1.9-1.6-3.6-3.4-5.4-5c-0.6-0.6-0.8-0.6-1.4,0c-3.4,3.2-6.8,6.5-10.2,9.7c-0.2,0.2-0.6,0.3-0.9,0.4c-0.1-0.3-0.3-0.7-0.4-1
			c-0.1-0.2,0-0.5,0-0.8c-0.1-0.3-0.2-0.6-0.3-0.9c-0.3,0.1-0.8,0.2-1,0.4c-0.9,0.8-1.8,1.7-2.7,2.5c-1.3,1.3-2.6,2.5-3.9,3.7
			c-0.2,0.2-0.6,0.3-0.9,0.4c-0.1-0.3-0.4-0.6-0.3-0.9c0.3-1.6-0.4-2.5-1.8-3.1c-0.8-0.4-1.5-0.9-2.2-1.5c-0.5-0.4-0.9-0.4-1.5,0
			c-3.4,2.7-6.9,5.4-10.4,8c-0.3,0.3-0.8,0.4-1.3,0.4c-1.2,0.1-2.4,0.1-3.6,0c-0.3,0-0.7-0.3-1-0.5c0.2-0.3,0.3-0.6,0.5-0.8
			c5.2-3.9,10.4-7.7,15.6-11.6c0.5-0.4,0.9-0.4,1.4,0c1.6,1.1,3.2,2.1,4.8,3.1c0.5,0.3,0.9,0.3,1.4-0.1c1.8-1.6,3.7-3.1,5.6-4.7
			c0.4-0.3,0.8-0.5,1.4-0.5c0.7,0,1.5-0.1,2.2,0c0.9,0.1,1.5-0.3,2.1-0.8c2.5-2.2,5-4.4,7.4-6.7c0.5-0.4,0.8-0.4,1.2,0
			c3.2,2.8,6.4,5.6,9.6,8.4c0.2,0.1,0.3,0.3,0.5,0.4c0.4,0.5,0.8,0.3,1.2-0.1c1.8-1.8,3.7-3.5,5.5-5.2c0.5-0.5,0.8-0.5,1.4-0.1
			c7.9,5.9,15.8,11.8,23.7,17.7c0.2,0.2,0.3,0.5,0.5,0.8c-0.3,0.2-0.6,0.4-0.9,0.4c-0.5,0.1-1.1,0-1.6,0c-1.9,0.3-3.4-0.4-4.9-1.6
			c-5.3-4.2-10.7-8.2-16.1-12.2c-0.3-0.2-0.7-0.4-1-0.3c-0.2,0.1-0.3,0.6-0.3,0.9C-128.2,377.2-128.2,377.9-128.2,378.5z"/>
		<path class="st0" d="M-67.1,423c-0.9-0.1-1.9-0.2-2.8-0.2c-1.2-0.1-2.3-0.2-3.5-0.3c-0.2,0-0.5-0.1-0.5-0.2
			c-0.1-0.1,0-0.4,0.2-0.5c0.5-0.5,0.6-1.1,0.4-1.8c-0.2-0.7-0.3-1.4-0.5-2.2c-1.7-0.1-3.4-0.2-5-0.4c-0.5,0-0.7,0-0.8,0.5
			c-0.1,0.4-0.3,0.8-0.3,1.3c0,0.5,0.2,1,0.3,1.5c0.1,0.3,0.3,0.5,0.5,0.9c-2.5-0.2-4.8-0.4-7.2-0.5c0.1-0.3,0.1-0.5,0.2-0.6
			c0.7-0.6,0.8-1.3,1-2.1c1.4-5.5,2.9-10.9,4.3-16.4c0.2-0.9,0.5-1.9,0.7-2.8c0.1-0.6,0.5-0.9,1.1-0.9c1.5,0,3,0,4.5,0
			c0.8,0,1.1,0.4,1.3,1c0.5,2,1,4,1.5,6.1c1.3,5.2,2.5,10.4,3.8,15.7c0.1,0.4,0.4,0.7,0.5,1.1c0.1,0.2,0.3,0.5,0.4,0.7
			C-67,422.9-67.1,423-67.1,423z M-76.6,403.7c0,0-0.1,0-0.1,0c-0.7,3-1.3,6-2,9.1c1.4,0.1,2.7,0.1,4.2,0.2
			C-75.3,409.8-75.9,406.7-76.6,403.7z"/>
		<path class="st0" d="M-219.9,415.8c0,1.6,0,3,0,4.5c0,0.4,0.3,0.8,0.5,1.2c0.1,0.3,0.2,0.5,0.4,0.8c-0.3,0.1-0.5,0.2-0.8,0.2
			c-1.7,0.2-3.5,0.4-5.2,0.5c-0.3,0-0.5,0-1,0c0.2-0.4,0.3-0.6,0.4-0.9c0.2-0.5,0.6-1.1,0.6-1.7c0-6.6,0-13.2,0-19.8
			c0-0.5-0.4-1.1-0.6-1.6c-0.1-0.2-0.2-0.5-0.5-0.9c0.5,0,0.7,0,1,0c2.8,0,5.5-0.2,8.3,0c3.2,0.2,5.7,1.1,6.7,4.5
			c0.5,1.6,0.6,3.3,0.4,5c-0.1,1-0.2,1.9-0.5,2.9c-0.6,2.2-2.1,3.7-4.3,4.3c-1.5,0.4-3.1,0.5-4.6,0.7
			C-219.3,415.7-219.6,415.7-219.9,415.8z M-219.9,410.9c0.9-0.1,1.7-0.1,2.5-0.2c1.7-0.3,2.2-0.8,2.5-2.5c0.1-0.8,0.2-1.7,0.1-2.6
			c-0.1-1.1-0.4-2.3-1.8-2.5c-1.1-0.2-2.2-0.1-3.3-0.2C-219.9,405.7-219.9,408.2-219.9,410.9z"/>
		<path class="st0" d="M-111.2,407.3c0,3.2,0,6.4,0,9.6c0,0.4,0.4,0.7,0.6,1.1c0.1,0.2,0.2,0.4,0.2,0.6c-0.2,0-0.4,0.1-0.6,0.1
			c-1.6-0.1-3.3-0.1-4.9-0.2c-0.3,0-0.6-0.1-1-0.1c0-0.1,0-0.2,0.1-0.3c1-0.8,0.9-1.8,0.9-2.9c0-4.8,0-9.6,0-14.4
			c0-0.8,0-1.5-0.7-2.1c-0.1-0.1-0.1-0.3-0.2-0.5c1.4,0,2.6,0.1,3.9,0c1.1-0.1,1.7,0.3,2.2,1.3c1.5,3.2,3.1,6.3,4.7,9.4
			c0.1,0.3,0.3,0.6,0.6,0.8c0-1.2,0-2.3,0-3.5c0-1.9,0-3.8,0-5.7c0-0.6-0.1-1.1-0.6-1.6c-0.1-0.1-0.2-0.4-0.3-0.6c2.2,0,4.3,0,6.5,0
			c-0.2,0.3-0.3,0.5-0.4,0.7c-0.2,0.5-0.5,0.9-0.5,1.4c0,5.6,0,11.3,0.1,16.9c0,0.4,0.2,0.7,0.4,1.1c0.1,0.2,0.3,0.5,0.5,0.8
			c-0.8,0-1.3,0-1.9,0c-0.9,0-1.8-0.2-2.6-0.2c-0.7,0-1.1-0.3-1.4-0.9c-1.7-3.4-3.4-6.8-5.1-10.2c-0.1-0.2-0.2-0.4-0.3-0.6
			C-111.1,407.3-111.2,407.3-111.2,407.3z"/>
		<path class="st0" d="M-198.3,419.4c1.4-1.2,0.7-2.6,0.3-4c-1.1,0-2.1,0.1-3.2,0.1c-0.6,0-1.2,0.1-1.7,0.1c-0.4,0-0.5,0.2-0.6,0.5
			c-0.1,0.6-0.2,1.2-0.4,1.8c-0.1,0.6-0.1,1.2,0.4,1.7c0.1,0.1,0.2,0.3,0.3,0.6c-2.3,0.2-4.4,0.3-6.6,0.5c0-0.2,0-0.3,0-0.4
			c1-1.2,1.1-2.7,1.5-4.1c1.4-5.6,2.8-11.2,4.2-16.8c0.3-1.2,0.4-1.2,1.6-1.2c1.3,0,2.5,0,3.8,0c0.9,0,1.1,0.1,1.3,1.1
			c0.6,2.4,1.3,4.9,1.9,7.3c1,3.6,1.9,7.3,2.9,10.9c0.1,0.4,0.4,0.7,0.7,1.1c0.1,0.1,0.2,0.3,0.2,0.4c0,0.1-0.2,0.2-0.4,0.2
			c-1.9,0.1-3.8,0.2-5.8,0.3C-197.9,419.6-198,419.5-198.3,419.4z M-200.5,403.1c0,0-0.1,0-0.1,0c-0.6,2.7-1.3,5.5-1.9,8.2
			c1.3,0,2.6,0,3.9,0C-199.3,408.5-199.9,405.8-200.5,403.1z"/>
		<path class="st0" d="M-136.3,408c0-1.9,0.2-3.7,0.8-5.5c1-2.8,3-4.2,5.9-4.5c1.6-0.2,3.1-0.1,4.7,0.4c2.4,0.8,3.7,2.6,4.3,5
			c0.5,1.6,0.5,3.3,0.5,5c0,1.6-0.1,3.3-0.5,4.9c-0.9,3.1-3,4.9-6.2,5.1c-2,0.2-4,0-5.8-1.1c-2.2-1.3-3-3.5-3.4-5.9
			C-136.2,410.3-136.2,409.2-136.3,408z M-124.8,408.3c-0.2-1.4-0.3-2.8-0.6-4.2c-0.4-1.6-1.3-2.2-2.9-2.2c-1.4,0-2.3,0.8-2.6,2.3
			c-0.2,1-0.3,2.1-0.4,3.1c-0.1,1.8-0.1,3.6,0.6,5.4c0.5,1.3,1.4,1.9,2.8,1.8c1.3-0.1,2.2-0.7,2.5-2.1
			C-125.1,411-125,409.6-124.8,408.3z"/>
		<path class="st0" d="M-157.6,418c-2.2,0-4.3,0-6.5,0c0-0.1,0-0.2,0.1-0.3c1.1-1,0.4-2.1,0.2-3.2c0-0.1-0.3-0.2-0.4-0.2
			c-1.5,0-3,0-4.5,0.1c-0.2,0-0.5,0.3-0.6,0.5c-0.2,0.3-0.2,0.7-0.3,1c-0.2,0.7-0.2,1.3,0.4,1.8c0.1,0.1,0.1,0.3,0.3,0.6
			c-2.3,0-4.5,0-6.6,0c1.6-2.6,1.9-5.6,2.8-8.5c0.9-2.9,1.6-5.8,2.5-8.7c0.2-0.7,0.4-1.5,0.6-2.2c0.1-0.5,0.4-0.7,1-0.7
			c1.5,0,3,0,4.5,0c0.6,0,0.9,0.3,1.1,0.9c1,3.4,1.9,6.8,2.9,10.2c0.7,2.4,1.3,4.8,2,7.2c0.1,0.3,0.3,0.6,0.5,0.9
			c0.1,0.2,0.3,0.4,0.4,0.5C-157.6,417.9-157.6,418-157.6,418z M-166.6,402.8c0,0-0.1,0-0.1,0c-0.6,2.5-1.3,5-1.9,7.6
			c1.3,0,2.6,0,3.9,0C-165.3,407.8-165.9,405.3-166.6,402.8z"/>
		<path class="st0" d="M-139.6,406c-0.1,0.2-0.1,0.3-0.2,0.4c-0.8,0.5-0.7,1.3-0.7,2.1c0,2.3,0,4.7,0,7c0,0.9-0.3,1.4-1.2,1.8
			c-2,0.8-4.1,1-6.1,0.8c-1-0.1-2-0.2-2.9-0.5c-2.3-0.6-3.8-2.1-4.4-4.4c-1-3.5-1-7,0-10.4c0.6-2.2,2.2-3.7,4.3-4.4
			c2.8-0.9,5.7-0.9,8.5,0c1.2,0.4,1.3,0.6,1,1.9c-0.1,0.4-0.2,0.8-0.3,1.2c-0.2,0.8-0.4,1-1.2,0.8c-1.5-0.4-3.1-0.6-4.7-0.4
			c-1.8,0.3-2.9,1.2-3.3,3c-0.4,2-0.4,4.1,0,6.1c0.4,2.1,1.7,3.1,3.9,3.2c2,0,2,0,2-2c0-1.4,0-2.8,0-4.2c0-0.6-0.1-1.2-0.6-1.6
			c-0.1-0.1-0.2-0.4-0.2-0.5c0,0,0.2-0.1,0.3-0.1c1.8,0,3.6,0,5.4,0.1C-139.8,405.9-139.7,406-139.6,406z"/>
		<path class="st0" d="M-176.2,403.3c-0.3-0.1-0.5-0.1-0.6-0.2c-0.6-0.7-1.3-0.7-2.1-0.6c-0.7,0-1.5,0-2.3,0c0,0.3,0,0.5,0,0.8
			c0,4.3,0,8.6,0,12.8c0,0.8,0,1.5,0.7,2c0.1,0.1,0.1,0.3,0.3,0.6c-2.3,0.1-4.4,0.2-6.8,0.3c0.2-0.4,0.3-0.6,0.4-0.8
			c0.2-0.4,0.5-0.8,0.5-1.2c0.1-4.7,0.1-9.4,0.1-14.1c0-0.1,0-0.2-0.1-0.5c-1.7,0.2-3.4-0.4-4.9,1.1c-0.1-0.4-0.1-0.5-0.1-0.7
			c0-1.2,0-2.4,0-3.6c0-0.8,0.2-1,1-1c4.3,0,8.5,0,12.8,0c1,0,1.1,0.1,1.1,1.1C-176.2,400.6-176.2,401.9-176.2,403.3z"/>
		<path class="st0" d="M-89,420.2c-0.8,0-1.6,0-2.4,0c-1.2-0.1-2.4-0.2-3.7-0.3c-0.2,0-0.3-0.1-0.5-0.2c0.1-0.2,0.1-0.4,0.2-0.5
			c0.5-0.5,0.6-1.1,0.6-1.7c0-5.6,0-11.3-0.1-16.9c0-0.6-0.1-1.2-0.6-1.7c-0.1-0.1-0.2-0.3-0.3-0.6c2.3,0,4.4,0,6.7,0
			c-0.1,0.3-0.2,0.5-0.3,0.6c-0.5,0.5-0.6,1.1-0.6,1.8c0,5.5,0,11.1,0,16.6c0,0.9,0,1.8,0.7,2.4C-89.2,419.8-89.1,420-89,420.2z"/>
		<path class="st0" d="M-156.6,426.3c0.3,0.5,0.6,1,0.9,1.6c-0.7,0.2-1.1,0.2-1.4-0.5c-0.2-0.4-0.4-0.7-0.6-1
			c-0.1,0-0.1,0.1-0.2,0.1c0,0.5,0,0.9,0,1.4c-1,0.3-1.1,0.2-1.1-0.7c0-1.2,0-2.4,0-3.6c0-0.4,0.1-0.6,0.6-0.6c0.3,0,0.6,0,0.9,0
			c0.7,0.1,1.5,0.1,1.8,1C-155.6,424.9-155.8,425.6-156.6,426.3z M-158,425.5c0.4-0.1,0.8-0.1,1-0.3c0.2-0.2,0.2-0.7,0-0.9
			c-0.2-0.2-0.6-0.3-1-0.5C-158,424.5-158,424.9-158,425.5z"/>
		<path class="st0" d="M-116.6,427.9c0.3-1.2,0.6-2.3,0.9-3.5c0.1-0.2,0.1-0.4,0.2-0.6c0.1-0.5,0.2-0.8,0.8-0.8c0.6,0,0.8,0.2,1,0.8
			c0.3,1.3,0.7,2.7,1.1,4.1c-0.6,0.2-1.1,0.3-1.3-0.5c0-0.2-0.4-0.3-0.7-0.3c-0.2,0-0.6,0.2-0.6,0.3
			C-115.3,428.1-115.8,428-116.6,427.9z M-114.5,424.4c0,0-0.1,0-0.1,0c-0.1,0.5-0.2,1-0.4,1.6c0.3,0,0.6,0,0.9,0
			C-114.3,425.4-114.4,424.9-114.5,424.4z"/>
		<path class="st0" d="M-136.1,424c0,0.4,0,0.7,0,1c0.5,0.1,1.1,0.2,1.6,0.3c0.1,0,0,0.4,0,0.7c-0.6,0-1,0-1.6,0c0,0.4,0,0.7,0,1.1
			c0.5,0,1.1,0,1.6,0c0.3,0.9,0.2,1-0.6,1c-0.5,0-1.1,0-1.6,0c-0.2,0-0.5-0.3-0.5-0.5c0-1.3,0-2.6,0-3.9c0-0.4,0.1-0.6,0.5-0.5
			c0.6,0,1.2,0,1.7,0c0.4,0,0.5,0.2,0.5,0.5c0,0.4-0.3,0.4-0.6,0.4C-135.3,424-135.7,424-136.1,424z"/>
		<path class="st0" d="M-148.5,423.1c1.1-0.2,1.1-0.1,1.3,0.8c0.2,0.8,0.4,1.7,0.7,2.5c0.2-0.9,0.4-1.7,0.6-2.6
			c0.2-0.9,0.3-0.9,1.3-0.7c-0.4,1.4-0.7,2.9-1.1,4.3c-0.1,0.5-0.5,0.5-0.8,0.4c-0.3-0.1-0.7-0.2-0.8-0.4
			C-147.8,426.1-148.1,424.6-148.5,423.1z"/>
		<path class="st0" d="M-168.4,424c0,0.4,0,0.7,0,1c0.5,0,1,0,1.5,0c0,0.3,0,0.6,0,0.9c-0.5,0-1,0-1.5,0c0,0.4,0,0.7,0,1.1
			c0.5,0,1,0,1.5,0c0.3,0.9,0.2,1-0.6,1c-0.7,0-1.5,0.2-1.9-0.2c-0.3-0.3-0.1-1.2-0.1-1.9c0-0.8,0-1.5,0-2.3c0-0.4,0.1-0.6,0.6-0.6
			c0.6,0,1.2,0,1.7,0c0.2,0,0.4,0.3,0.5,0.5c0.1,0.4-0.2,0.5-0.5,0.5C-167.6,424-168,424-168.4,424z"/>
		<path class="st0" d="M-125.7,427c0.5,0,0.9,0,1.3,0c0.3,0,0.5,0.1,0.5,0.5c0,0.4-0.1,0.6-0.5,0.5c-0.7,0-1.3,0-2,0
			c-0.4,0-0.6-0.1-0.5-0.5c0.1-0.3,0.1-0.6,0.3-0.9c0.4-0.8,0.9-1.5,1.5-2.5c-0.5,0-0.9,0.1-1.2,0c-0.2,0-0.4-0.3-0.5-0.5
			c-0.1-0.3,0.1-0.6,0.5-0.5c0.6,0,1.2,0,1.7,0c0.8,0,1,0.4,0.6,1.1c-0.4,0.8-0.9,1.5-1.4,2.3C-125.5,426.6-125.5,426.7-125.7,427z"
			/>
		<path class="st0" d="M-177.3,424c-0.6,0-1.3-0.3-1.6,0.4c-0.3,0.7-0.4,1.6,0.1,2.2c0.3,0.3,1,0.3,1.4,0.5c0-0.1,0.1-0.1,0.1-0.2
			c0.1,0.2,0.1,0.5,0.2,0.7c-0.7,0.5-1.5,0.4-2.2,0.1c-0.7-0.3-0.9-0.9-0.9-1.7c0-0.6-0.1-1.2,0.1-1.7c0.3-1.2,1.5-1.8,2.6-1.3
			C-176.9,423.3-177.1,423.7-177.3,424z"/>
	</g>
</g>
</svg>
