<?xml version="1.0" encoding="utf-8"?>
<!-- Generator: Adobe Illustrator 19.0.0, SVG Export Plug-In . SVG Version: 6.00 Build 0)  -->
<svg version="1.1" id="Layer_1" xmlns="http://www.w3.org/2000/svg" xmlns:xlink="http://www.w3.org/1999/xlink" x="0px" y="0px"
	 viewBox="-56 307 497.7 180" style="enable-background:new -56 307 497.7 180;" xml:space="preserve">
<style type="text/css">
	.st0{fill:#FFFFFF;}
</style>
<g>
	<g>
		<path class="st0" d="M15.5,346.9c0,0,0-0.4-0.1-1c-0.1-0.6-0.1-1.4-0.2-2.4c-0.1-1-0.2-2.2-0.3-3.5c-0.1-1.3-0.2-2.7-0.3-4.2
			s-0.2-2.9-0.3-4.4c-0.1-1.5-0.2-2.9-0.3-4.3c-0.1-1.4-0.1-2.6-0.2-3.8c0-1.2-0.1-2.1-0.1-2.9c0-1.1,0.1-2,0.4-2.6
			c0.3-0.6,0.6-1.1,1-1.3c0.4-0.3,0.8-0.5,1.3-0.5s0.8-0.1,1.2-0.1c0.7,0,1.2,0.1,1.7,0.3c0.4,0.2,0.8,0.5,1,0.8
			c0.2,0.4,0.4,0.8,0.5,1.3c0.1,0.5,0.1,1.1,0.1,1.7l1.2,33l18-34.6c0.1-0.4,0.4-0.9,0.7-1.3c0.3-0.4,0.7-0.8,1.1-1.1
			c0.4-0.3,0.9-0.5,1.5-0.7c0.5-0.2,1.1-0.3,1.7-0.3c0.7,0,1.2,0.3,1.6,0.9c0.4,0.6,0.6,1.3,0.6,2.3c0,0.7-0.2,1.6-0.5,2.7
			c-0.4,1.1-0.8,2.4-1.4,3.7s-1.3,2.9-2,4.5c-0.8,1.6-1.6,3.2-2.4,4.8c-0.8,1.6-1.7,3.3-2.5,4.9c-0.9,1.6-1.7,3.1-2.5,4.6
			c-0.2,0.4-0.4,0.9-0.5,1.3s-0.2,0.9-0.2,1.4c0,0.7,0.1,1.4,0.4,2.1c0.3,0.7,0.7,1.3,1.3,1.8c0.6,0.5,1.3,0.9,2.2,1.2
			c0.9,0.3,2,0.5,3.2,0.5c0.3,0,0.6-0.1,1-0.2c0.4-0.1,0.7-0.3,1.1-0.5c0.4-0.2,0.8-0.5,1.2-0.7c0.4-0.3,0.8-0.6,1.2-0.8
			c0.9-0.7,1.8-1.4,2.7-2.3l-0.6,5.7c-1.5,1.2-3.1,2.2-4.6,2.9c-1.5,0.7-3,1.1-4.3,1.1c-1.3,0-2.4-0.2-3.3-0.5
			c-1-0.3-1.8-0.8-2.5-1.5c-0.7-0.6-1.2-1.4-1.6-2.3c-0.4-0.9-0.5-1.9-0.5-3c0-0.6,0.1-1.2,0.2-1.8c-1.1,2.5-2.1,4.7-3.1,6.4
			c-1,1.7-1.9,3.1-2.8,4.1c-0.9,1-1.7,1.8-2.6,2.2c-0.8,0.4-1.7,0.7-2.5,0.7c-1.1,0-2-0.2-2.7-0.6c-0.7-0.4-1.3-0.9-1.7-1.5
			c-0.4-0.7-0.7-1.4-0.9-2.3c-0.2-0.9-0.3-1.9-0.4-2.9c-0.1-1.1-0.1-2.2-0.2-3.3C15.7,349.3,15.6,348.1,15.5,346.9z"/>
		<path class="st0" d="M62.7,354.3c-0.7,0.6-1.5,1.3-2.5,2c-1,0.7-2.1,1.3-3.2,1.9c-1.1,0.6-2.3,1.1-3.5,1.5s-2.3,0.6-3.4,0.6
			c-1,0-1.8-0.1-2.4-0.4c-0.7-0.3-1.2-0.6-1.6-1.1c-0.4-0.5-0.7-1.1-0.9-1.8c-0.2-0.7-0.3-1.5-0.3-2.3c0-1.2,0.1-2.5,0.4-4.1
			c0.3-1.5,0.6-3.1,1-4.8s0.8-3.3,1.2-4.9c0.4-1.6,0.8-3.2,1.1-4.5c0.1-0.5,0.4-0.9,0.8-1.2s0.8-0.6,1.3-0.8c0.5-0.2,1-0.4,1.5-0.5
			c0.5-0.1,1-0.2,1.4-0.2c0.8,0,1.3,0.1,1.6,0.4c0.3,0.3,0.4,0.7,0.4,1.2c0,0.4-0.1,1-0.3,1.8c-0.2,0.8-0.4,1.6-0.7,2.6
			c-0.3,1-0.6,2-0.9,3.1c-0.3,1.1-0.6,2.2-0.9,3.4c-0.3,1.1-0.5,2.2-0.7,3.3c-0.2,1.1-0.3,2-0.3,2.9c0,0.8,0.1,1.5,0.3,2
			c0.2,0.5,0.6,0.7,1.1,0.7c0.7,0,1.4-0.2,2.2-0.7c0.8-0.5,1.6-1,2.5-1.7s1.6-1.3,2.4-2c0.8-0.7,1.5-1.3,2.1-1.8V354.3z M50.3,325.8
			c0-0.4,0.1-0.9,0.3-1.4c0.2-0.5,0.5-1,0.9-1.5c0.4-0.5,1-0.9,1.7-1.2s1.6-0.5,2.6-0.5c0.6,0,1.3,0.1,1.8,0.2
			c0.6,0.1,1.1,0.4,1.5,0.7c0.4,0.3,0.8,0.7,1,1.2c0.2,0.5,0.4,1.1,0.4,1.8c0,0.6-0.1,1.2-0.3,1.8c-0.2,0.6-0.5,1.1-1,1.6
			s-1,0.8-1.7,1.1c-0.7,0.3-1.5,0.4-2.4,0.4c-1.6,0-2.8-0.4-3.6-1.2C50.6,328.1,50.3,327.1,50.3,325.8z"/>
		<path class="st0" d="M60.7,351.2c-0.1-1.4-0.1-2.6-0.2-3.6s-0.1-2-0.2-2.8c0-0.8-0.1-1.6-0.1-2.3c0-0.7,0-1.4,0-2.2
			c0-1.9,0.1-3.4,0.3-4.4c0.2-1.1,0.6-1.6,1.2-1.7l3.3-0.5c0.1,0,0.2,0,0.3,0c0.1,0,0.2,0,0.3,0c0.6,0,1.1,0.2,1.5,0.6
			c0.3,0.4,0.5,0.8,0.5,1.3L66.4,353l0.4,0l7.3-17.4c0.1-0.3,0.2-0.5,0.4-0.7c0.2-0.2,0.4-0.4,0.7-0.6c0.3-0.2,0.6-0.3,1-0.4
			c0.4-0.1,0.7-0.2,1.2-0.2c1.1,0,1.9,0.2,2.6,0.7c0.6,0.4,1,1,1,1.7c0,0.5-0.1,1-0.2,1.5c-0.1,0.5-0.3,1-0.6,1.5
			c-0.2,0.5-0.5,1.1-0.9,1.8c-0.3,0.7-0.7,1.5-1.1,2.4c-0.1,0.3-0.2,0.7-0.3,1c-0.1,0.3-0.2,0.7-0.2,1.1c-0.1,0.4-0.1,0.8-0.1,1.2
			c0,0.4,0.1,0.9,0.2,1.3s0.3,0.8,0.6,1.2s0.7,0.6,1.1,0.8c0.5,0.2,1.1,0.3,1.9,0.3c0.6,0,1.2-0.1,1.9-0.4c0.7-0.3,1.4-0.6,2.1-1
			c0.8-0.4,1.5-0.9,2.3-1.4v6.5c-1.2,0.8-2.5,1.4-3.8,1.9c-1.3,0.5-2.5,0.7-3.7,0.7c-1,0-1.9-0.2-2.7-0.5c-0.8-0.3-1.5-0.7-2-1.2
			c-0.5-0.5-1-1.1-1.3-1.7c-0.3-0.6-0.5-1.3-0.5-2c-0.5,1.1-1.1,2.2-1.8,3.4c-0.7,1.2-1.4,2.2-2.1,3.2c-0.7,0.9-1.5,1.7-2.2,2.3
			c-0.7,0.6-1.4,0.9-2.1,0.9c-1.1,0-1.9-0.3-2.5-0.8c-0.6-0.5-1-1.2-1.3-2.1c-0.3-0.8-0.5-1.7-0.6-2.7c-0.1-1-0.2-1.9-0.2-2.8
			L60.7,351.2z"/>
		<path class="st0" d="M102.7,354.3c-0.7,0.6-1.5,1.3-2.5,2c-1,0.7-2.1,1.3-3.2,1.9c-1.1,0.6-2.3,1.1-3.5,1.5
			c-1.2,0.4-2.3,0.6-3.4,0.6c-1,0-1.8-0.1-2.4-0.4c-0.7-0.3-1.2-0.6-1.6-1.1c-0.4-0.5-0.7-1.1-0.9-1.8c-0.2-0.7-0.3-1.5-0.3-2.3
			c0-1.2,0.1-2.5,0.4-4.1c0.3-1.5,0.6-3.1,1-4.8c0.4-1.7,0.8-3.3,1.2-4.9c0.4-1.6,0.8-3.2,1.2-4.5c0.1-0.5,0.4-0.9,0.8-1.2
			c0.4-0.3,0.8-0.6,1.3-0.8c0.5-0.2,1-0.4,1.5-0.5s1-0.2,1.4-0.2c0.8,0,1.3,0.1,1.6,0.4c0.3,0.3,0.4,0.7,0.4,1.2
			c0,0.4-0.1,1-0.3,1.8c-0.2,0.8-0.4,1.6-0.7,2.6c-0.3,1-0.6,2-0.9,3.1c-0.3,1.1-0.6,2.2-0.9,3.4c-0.3,1.1-0.5,2.2-0.7,3.3
			c-0.2,1.1-0.3,2-0.3,2.9c0,0.8,0.1,1.5,0.3,2c0.2,0.5,0.6,0.7,1.1,0.7c0.7,0,1.4-0.2,2.2-0.7c0.8-0.5,1.6-1,2.5-1.7
			c0.8-0.7,1.6-1.3,2.4-2c0.8-0.7,1.5-1.3,2.1-1.8V354.3z M90.3,325.8c0-0.4,0.1-0.9,0.3-1.4c0.2-0.5,0.5-1,0.9-1.5
			c0.4-0.5,1-0.9,1.7-1.2s1.6-0.5,2.6-0.5c0.6,0,1.3,0.1,1.8,0.2c0.6,0.1,1.1,0.4,1.5,0.7c0.4,0.3,0.8,0.7,1,1.2s0.4,1.1,0.4,1.8
			c0,0.6-0.1,1.2-0.3,1.8c-0.2,0.6-0.5,1.1-1,1.6c-0.4,0.5-1,0.8-1.7,1.1c-0.7,0.3-1.5,0.4-2.4,0.4c-1.6,0-2.8-0.4-3.6-1.2
			C90.7,328.1,90.3,327.1,90.3,325.8z"/>
		<path class="st0" d="M122,360.2c-1,0-1.9-0.4-2.8-1.3c-0.9-0.9-1.6-2.1-2.2-3.5s-1.1-3.2-1.5-5.1c-0.4-1.9-0.5-4-0.5-6.1
			c0-1.6,0.1-3.4,0.4-5.4c0.2-1.9,0.6-3.9,1.1-6c0.5-2.1,1-4.1,1.6-6.2s1.4-4.1,2.2-6c0.8-1.9,1.7-3.7,2.6-5.3
			c0.9-1.7,1.9-3.1,3-4.3c1-1.2,2.1-2.2,3.2-2.9c1.1-0.7,2.3-1.1,3.4-1.1c0.8,0,1.5,0.2,2,0.5c0.5,0.4,0.9,0.8,1.2,1.4
			c0.3,0.6,0.5,1.3,0.6,2c0.1,0.7,0.2,1.5,0.2,2.3c0,1.7-0.2,3.5-0.6,5.3c-0.4,1.8-0.9,3.6-1.6,5.4c-0.7,1.8-1.5,3.6-2.3,5.5
			c-0.9,1.8-1.8,3.6-2.8,5.4c-1,1.8-1.9,3.6-2.9,5.3s-1.9,3.5-2.7,5.1c-0.1,0.2-0.2,0.4-0.3,0.7c-0.1,0.3-0.2,0.6-0.3,1
			c-0.1,0.3-0.2,0.7-0.3,1.1c-0.1,0.4-0.2,0.8-0.2,1.1v0.4c0,0.5,0.1,0.9,0.2,1.4s0.2,0.9,0.4,1.2c0.1,0.4,0.3,0.6,0.5,0.9
			c0.2,0.2,0.3,0.3,0.5,0.3c0.4,0,0.8-0.1,1.2-0.2c0.5-0.1,0.9-0.3,1.4-0.6c0.5-0.2,1-0.5,1.6-0.9c0.5-0.3,1.1-0.7,1.6-1
			c1.2-0.8,2.4-1.7,3.7-2.7l2.3,5.8c-1.6,1.2-3.3,2.2-4.9,3.2c-0.7,0.4-1.4,0.8-2.2,1.2c-0.7,0.4-1.5,0.7-2.3,1
			c-0.8,0.3-1.5,0.5-2.2,0.7C123.3,360.1,122.6,360.2,122,360.2z M122,338c0.8-1.5,1.7-3.1,2.6-5c0.9-1.8,1.8-3.8,2.6-5.7
			c0.8-2,1.6-3.9,2.2-5.9c0.6-1.9,1-3.8,1.2-5.4c0-0.5,0-1,0-1.4c0-0.4-0.1-0.6-0.3-0.6c-0.5,0-1.1,0.3-1.7,1
			c-0.6,0.7-1.2,1.6-1.9,2.8c-0.6,1.2-1.2,2.6-1.8,4.1c-0.6,1.6-1.1,3.2-1.5,5c-0.4,1.8-0.8,3.6-1.1,5.5
			C122.1,334.4,122,336.3,122,338z"/>
		<path class="st0" d="M160.7,353.4c-0.4,0.6-1,1.3-1.7,2.1c-0.7,0.8-1.5,1.6-2.4,2.3c-0.9,0.7-1.8,1.3-2.9,1.8c-1,0.5-2,0.7-3,0.7
			c-1.2,0-2.2-0.4-3-1.2c-0.8-0.8-1.5-1.9-2.1-3.4c-0.4,0.5-1,1-1.6,1.6s-1.4,1-2.1,1.5c-0.8,0.4-1.6,0.8-2.4,1.1
			c-0.8,0.3-1.7,0.4-2.5,0.4c-0.9,0-1.8-0.2-2.6-0.5c-0.8-0.4-1.6-0.9-2.2-1.6c-0.6-0.7-1.2-1.5-1.6-2.5c-0.4-1-0.6-2.1-0.6-3.3
			c0-1.4,0.2-2.8,0.6-4.3c0.4-1.5,0.9-2.9,1.6-4.3c0.7-1.4,1.5-2.7,2.4-3.9c0.9-1.2,2-2.3,3.1-3.2c1.1-0.9,2.3-1.7,3.5-2.2
			c1.2-0.5,2.5-0.8,3.8-0.8c0.4,0,0.8,0.1,1,0.2c0.2,0.2,0.4,0.4,0.6,0.6c0.2,0.2,0.3,0.4,0.5,0.6c0.1,0.2,0.3,0.4,0.6,0.4
			s0.4,0.2,0.7,0.2c0.2,0,0.5,0,0.7,0c0.2,0,0.4,0,0.6,0c0.2,0,0.4,0,0.6,0c0.3,0,0.5,0,0.8,0.1c0.2,0.1,0.5,0.2,0.6,0.4
			c0.2,0.2,0.3,0.4,0.4,0.8c0.1,0.3,0.2,0.8,0.2,1.4c0,0.9-0.1,1.9-0.3,3c-0.2,1.1-0.4,2.2-0.6,3.3c-0.2,1.1-0.4,2.3-0.6,3.4
			c-0.2,1.1-0.3,2.2-0.3,3.2c0,0.9,0.1,1.5,0.2,2c0.2,0.5,0.5,0.7,1,0.7c0.4,0,0.8-0.1,1.2-0.3c0.4-0.2,0.9-0.4,1.3-0.8
			c0.4-0.3,0.9-0.7,1.3-1.1c0.4-0.4,0.8-0.8,1.2-1.2c0.9-1,1.8-2.1,2.7-3.4L160.7,353.4z M137.1,351.2c0,0.5,0,0.9,0.1,1.3
			c0.1,0.4,0.2,0.8,0.3,1.2c0.2,0.3,0.4,0.6,0.7,0.8c0.3,0.2,0.6,0.3,1.1,0.3c0.7,0,1.3-0.3,1.9-0.9c0.6-0.6,1-1.3,1.4-2.1
			c0.4-0.8,0.7-1.7,1-2.6s0.4-1.6,0.5-2.2l1.7-8.1c-0.8,0-1.5,0.2-2.2,0.6c-0.7,0.4-1.4,0.9-2,1.5s-1.2,1.4-1.8,2.2
			c-0.5,0.8-1,1.7-1.4,2.6c-0.4,0.9-0.7,1.8-0.9,2.8C137.2,349.6,137.1,350.4,137.1,351.2z"/>
		<path class="st0" d="M201.6,353.4c-0.4,0.6-1,1.3-1.7,2.1c-0.7,0.8-1.5,1.6-2.4,2.3c-0.9,0.7-1.8,1.3-2.9,1.8c-1,0.5-2,0.7-3,0.7
			c-1.2,0-2.2-0.4-3-1.2c-0.8-0.8-1.5-1.9-2.1-3.4c-0.4,0.5-1,1-1.6,1.6c-0.6,0.5-1.4,1-2.1,1.5c-0.8,0.4-1.6,0.8-2.4,1.1
			c-0.8,0.3-1.7,0.4-2.5,0.4c-0.9,0-1.8-0.2-2.6-0.5c-0.8-0.4-1.6-0.9-2.2-1.6c-0.6-0.7-1.2-1.5-1.6-2.5c-0.4-1-0.6-2.1-0.6-3.3
			c0-1.4,0.2-2.8,0.6-4.3c0.4-1.5,0.9-2.9,1.6-4.3c0.7-1.4,1.5-2.7,2.4-3.9c0.9-1.2,2-2.3,3.1-3.2c1.1-0.9,2.3-1.7,3.5-2.2
			c1.2-0.5,2.5-0.8,3.8-0.8c0.4,0,0.8,0.1,1,0.2c0.2,0.2,0.4,0.4,0.6,0.6c0.2,0.2,0.3,0.4,0.5,0.6c0.1,0.2,0.3,0.4,0.6,0.4
			c0.2,0.1,0.4,0.2,0.7,0.2c0.2,0,0.5,0,0.7,0c0.2,0,0.4,0,0.6,0c0.2,0,0.4,0,0.6,0c0.3,0,0.5,0,0.8,0.1c0.2,0.1,0.5,0.2,0.6,0.4
			c0.2,0.2,0.3,0.4,0.4,0.8c0.1,0.3,0.2,0.8,0.2,1.4c0,0.9-0.1,1.9-0.3,3c-0.2,1.1-0.4,2.2-0.6,3.3c-0.2,1.1-0.4,2.3-0.6,3.4
			c-0.2,1.1-0.3,2.2-0.3,3.2c0,0.9,0.1,1.5,0.2,2c0.2,0.5,0.5,0.7,1,0.7c0.4,0,0.8-0.1,1.2-0.3c0.4-0.2,0.9-0.4,1.3-0.8
			c0.4-0.3,0.9-0.7,1.3-1.1c0.4-0.4,0.8-0.8,1.2-1.2c0.9-1,1.8-2.1,2.7-3.4L201.6,353.4z M177.9,351.2c0,0.5,0,0.9,0.1,1.3
			c0.1,0.4,0.2,0.8,0.3,1.2c0.2,0.3,0.4,0.6,0.7,0.8c0.3,0.2,0.6,0.3,1.1,0.3c0.7,0,1.3-0.3,1.9-0.9c0.6-0.6,1-1.3,1.4-2.1
			c0.4-0.8,0.7-1.7,1-2.6c0.2-0.9,0.4-1.6,0.5-2.2l1.7-8.1c-0.8,0-1.5,0.2-2.2,0.6c-0.7,0.4-1.4,0.9-2,1.5s-1.2,1.4-1.8,2.2
			c-0.5,0.8-1,1.7-1.4,2.6c-0.4,0.9-0.7,1.8-0.9,2.8C178,349.6,177.9,350.4,177.9,351.2z"/>
		<path class="st0" d="M198.3,351.2c-0.1-1.4-0.1-2.6-0.2-3.6s-0.1-2-0.2-2.8c0-0.8-0.1-1.6-0.1-2.3c0-0.7,0-1.4,0-2.2
			c0-1.9,0.1-3.4,0.3-4.4c0.2-1.1,0.6-1.6,1.2-1.7l3.3-0.5c0.1,0,0.2,0,0.3,0c0.1,0,0.2,0,0.3,0c0.6,0,1.1,0.2,1.5,0.6
			c0.3,0.4,0.5,0.8,0.5,1.3L204,353l0.4,0l7.3-17.4c0.1-0.3,0.2-0.5,0.4-0.7c0.2-0.2,0.4-0.4,0.7-0.6c0.3-0.2,0.6-0.3,1-0.4
			c0.4-0.1,0.7-0.2,1.2-0.2c1.1,0,1.9,0.2,2.6,0.7c0.6,0.4,1,1,1,1.7c0,0.5-0.1,1-0.2,1.5c-0.1,0.5-0.3,1-0.6,1.5
			c-0.2,0.5-0.5,1.1-0.9,1.8c-0.3,0.7-0.7,1.5-1.1,2.4c-0.1,0.3-0.2,0.7-0.3,1c-0.1,0.3-0.2,0.7-0.2,1.1c-0.1,0.4-0.1,0.8-0.1,1.2
			c0,0.4,0.1,0.9,0.2,1.3s0.3,0.8,0.6,1.2s0.7,0.6,1.1,0.8c0.5,0.2,1.1,0.3,1.9,0.3c0.6,0,1.2-0.1,1.9-0.4c0.7-0.3,1.4-0.6,2.1-1
			c0.8-0.4,1.5-0.9,2.3-1.4v6.5c-1.2,0.8-2.5,1.4-3.8,1.9c-1.3,0.5-2.5,0.7-3.7,0.7c-1,0-1.9-0.2-2.7-0.5c-0.8-0.3-1.5-0.7-2-1.2
			c-0.5-0.5-1-1.1-1.3-1.7c-0.3-0.6-0.5-1.3-0.5-2c-0.5,1.1-1.1,2.2-1.8,3.4c-0.7,1.2-1.4,2.2-2.1,3.2c-0.7,0.9-1.5,1.7-2.2,2.3
			c-0.7,0.6-1.4,0.9-2.1,0.9c-1.1,0-1.9-0.3-2.5-0.8c-0.6-0.5-1-1.2-1.3-2.1c-0.3-0.8-0.5-1.7-0.6-2.7c-0.1-1-0.2-1.9-0.2-2.8
			L198.3,351.2z"/>
		<path class="st0" d="M232.8,360.2c-1.7,0-3.3-0.3-4.6-0.9c-1.3-0.6-2.4-1.5-3.3-2.5c-0.9-1.1-1.5-2.3-2-3.7
			c-0.4-1.4-0.7-2.9-0.7-4.4c0-1,0.1-2.1,0.3-3.3c0.2-1.2,0.5-2.3,0.9-3.4c0.4-1.1,0.9-2.2,1.6-3.2c0.6-1,1.4-1.9,2.2-2.7
			c0.8-0.8,1.8-1.4,2.8-1.8c1-0.5,2.2-0.7,3.5-0.7c1,0,2,0.2,2.9,0.5c0.9,0.3,1.7,0.8,2.3,1.4c0.7,0.6,1.2,1.3,1.5,2.2
			c0.4,0.9,0.6,1.8,0.6,2.9c0,1.1-0.3,2.3-0.8,3.4c-0.6,1.1-1.3,2.2-2.3,3.2c-1,1-2.2,1.9-3.6,2.7c-1.4,0.8-2.9,1.4-4.5,1.9
			c0.3,0.5,0.5,0.9,0.8,1.2c0.3,0.3,0.5,0.6,0.8,0.8s0.6,0.3,0.9,0.4c0.3,0.1,0.6,0.1,1,0.1c1.1,0,2.3-0.2,3.5-0.7
			c1.2-0.4,2.4-1,3.6-1.7c1.2-0.7,2.3-1.4,3.3-2.2c1-0.8,1.9-1.5,2.6-2.2l3.6,3.7c-1.6,1.7-3.4,3.2-5.2,4.5
			c-0.8,0.6-1.6,1.1-2.6,1.6s-1.9,1-2.9,1.4c-1,0.4-2.1,0.7-3.1,1C235,360.1,233.9,360.2,232.8,360.2z M229.1,347.2
			c0.7,0,1.4-0.2,2.2-0.5c0.8-0.3,1.5-0.8,2.2-1.3c0.7-0.5,1.2-1.1,1.7-1.7c0.5-0.6,0.7-1.2,0.7-1.8c0-0.8-0.2-1.5-0.5-2.1
			c-0.3-0.5-0.7-0.8-1.1-0.8c-0.8,0-1.5,0.1-2,0.4c-0.6,0.3-1,0.7-1.4,1.2c-0.4,0.5-0.7,1-0.9,1.6c-0.2,0.6-0.4,1.2-0.5,1.8
			c-0.1,0.6-0.2,1.2-0.2,1.8C229.1,346.3,229.1,346.8,229.1,347.2z"/>
		<path class="st0" d="M245.2,354.4c0-1.2,0.1-2.6,0.2-4.2c0.1-1.6,0.3-3.2,0.6-4.9c0.2-1.7,0.5-3.2,0.7-4.8s0.5-2.8,0.8-3.9
			c0.2-0.8,0.6-1.6,1.2-2.1c0.6-0.6,1.4-0.9,2.4-0.9c1,0,1.7,0.3,2.1,0.9c0.4,0.6,0.6,1.4,0.6,2.4c0,0.3,0,0.7-0.1,1.1
			c-0.1,0.5-0.1,1-0.2,1.6c-0.1,0.6-0.2,1.1-0.3,1.7c-0.1,0.6-0.2,1.2-0.3,1.7c-0.1,0.5-0.2,1-0.2,1.3c-0.1,0.4-0.1,0.6-0.1,0.8h0.6
			c0.1-0.2,0.3-0.5,0.5-1c0.2-0.5,0.5-1,0.8-1.6c0.3-0.6,0.7-1.2,1-1.9c0.4-0.7,0.7-1.3,1-1.9c0.3-0.6,0.6-1.1,0.9-1.6
			c0.3-0.5,0.5-0.8,0.6-1c0.6-1,1.3-1.7,2-2.1c0.8-0.4,1.6-0.6,2.5-0.6c0.9,0,1.7,0.4,2.2,1.2c0.5,0.8,0.8,1.8,0.8,3.2
			c0,0.2,0,0.5-0.1,1c-0.1,0.5-0.2,1.1-0.3,1.7c-0.1,0.7-0.3,1.4-0.4,2.2c-0.2,0.8-0.3,1.6-0.4,2.4c-0.1,0.8-0.2,1.7-0.3,2.5
			c-0.1,0.8-0.1,1.6-0.1,2.2c0,1.1,0.1,2.1,0.4,2.8c0.3,0.7,0.7,1.1,1.3,1.1c0.3,0,0.6-0.1,1-0.2c0.4-0.2,0.7-0.4,1.2-0.7
			c0.4-0.3,0.8-0.6,1.3-0.9c0.4-0.4,0.9-0.7,1.3-1.1c1-0.9,2-1.8,3.1-2.9l0.5,6.2l-1.4,1.1c-0.8,0.6-1.5,1.1-2.3,1.7
			c-0.8,0.6-1.6,1.1-2.5,1.5c-0.8,0.5-1.7,0.8-2.7,1.1c-0.9,0.3-1.9,0.4-2.9,0.4c-1,0-1.9-0.7-2.6-2.2c-0.7-1.5-1-3.6-1-6.4
			c0-1.1,0.1-2.3,0.2-3.6c0.1-1.3,0.3-2.7,0.6-4.1h-0.4l-7.3,14.4c-0.4,0.8-0.8,1.3-1.2,1.6c-0.5,0.3-1,0.4-1.6,0.4
			c-0.8,0-1.4-0.2-1.8-0.5c-0.5-0.3-0.8-0.8-1.1-1.3s-0.4-1.2-0.5-1.9C245.3,355.9,245.2,355.2,245.2,354.4z"/>
		<path class="st0" d="M294,354c-1.8,1-3.4,1.9-4.7,2.7c-1.4,0.8-2.6,1.4-3.7,1.9s-2,0.9-2.9,1.2c-0.8,0.3-1.6,0.4-2.3,0.4
			c-1.4,0-2.6-0.4-3.7-1.3c-1.1-0.8-2-2.1-2.7-3.7c-0.7-1.6-1.3-3.5-1.6-5.8c-0.4-2.3-0.5-4.8-0.5-7.7c0-1.1,0-2.3,0.1-3.5
			c0.1-1.3,0.2-2.5,0.4-3.7c-0.6-0.1-1-0.1-1.3-0.2c-0.3-0.1-0.6-0.1-1-0.2c-0.3-0.1-0.8-0.1-1.3-0.2c-0.5-0.1-1.3-0.2-2.3-0.3
			c-0.4-0.1-0.8-0.2-1-0.3c-0.2-0.2-0.4-0.3-0.5-0.6c-0.1-0.2-0.2-0.4-0.2-0.7c0-0.2,0-0.4,0-0.6c0-0.4,0.2-0.7,0.5-0.8
			c0.4-0.2,0.8-0.3,1.4-0.4c0.6-0.1,1.2-0.1,1.9-0.2c0.7,0,1.3,0,1.9,0c0.6,0,1.2,0,1.7,0c0.5,0,0.8,0,1,0c0.5-2.5,1.1-4.9,1.9-7.2
			c0.8-2.3,1.6-4.4,2.6-6.2c1-1.8,2-3.3,3.1-4.4c1.1-1.1,2.3-1.6,3.5-1.6c0.8,0,1.5,0.2,2.2,0.7c0.7,0.4,1.2,1,1.7,1.8
			c0.5,0.7,0.8,1.6,1.1,2.6c0.2,1,0.4,2,0.4,3.1c0,0.9-0.1,1.9-0.4,2.9c-0.3,1-0.6,2-1.1,3.1c-0.4,1-1,2.1-1.6,3.2
			c-0.6,1.1-1.2,2.1-1.9,3.2c0.2,0,0.4,0,0.8,0c0.4,0,0.8,0,1.3,0c0.5,0,1.1,0,1.6,0.1c0.6,0,1.2,0.1,1.7,0.1c0.6,0,1.1,0,1.6,0.1
			c0.5,0,0.9,0,1.2,0.1c0.4,0,0.6,0.2,0.8,0.6c0.2,0.4,0.2,0.8,0.2,1.3c0,0.6-0.2,1.2-0.6,1.6c-0.4,0.4-0.8,0.6-1.2,0.6h-10.6
			c-0.5,0.7-1.1,1.5-1.6,2.2c-0.5,0.7-1,1.4-1.5,1.9c-0.1,1.1-0.1,2.3-0.2,3.4c0,0.5,0,1-0.1,1.5c0,0.5,0,1-0.1,1.5c0,0.5,0,1,0,1.4
			c0,0.5,0,0.9,0,1.3c0,1,0.1,1.8,0.3,2.5c0.2,0.7,0.5,1.2,0.8,1.7c0.4,0.4,0.8,0.7,1.3,0.9c0.5,0.2,1.1,0.3,1.7,0.3
			c0.4,0,0.9-0.1,1.5-0.3c0.6-0.2,1.2-0.4,1.9-0.8c0.7-0.3,1.4-0.7,2.2-1.2c0.8-0.4,1.5-0.9,2.3-1.5s1.5-1.1,2.1-1.7
			c0.7-0.6,1.3-1.2,1.9-1.8V354z M285.1,318.9c0-0.2,0-0.4,0-0.7c0-0.2-0.1-0.5-0.2-0.7c-0.1-0.2-0.2-0.4-0.4-0.6
			c-0.2-0.1-0.5-0.2-0.8-0.2c-0.5,0-1,0.4-1.5,1.3c-0.5,0.9-1,1.9-1.4,3.3c-0.5,1.3-0.9,2.8-1.3,4.4c-0.4,1.6-0.8,3.1-1.1,4.6
			c0.3,0,0.6,0.1,0.8,0.1s0.6,0.1,0.9,0.1c0.6-0.9,1.1-2,1.7-3.1c0.6-1.1,1.1-2.2,1.6-3.2c0.5-1.1,0.9-2.1,1.2-3
			C285,320.3,285.1,319.5,285.1,318.9z"/>
		<path class="st0" d="M313.8,335.4c0,0.5-0.1,1.2-0.2,2c-0.1,0.9-0.3,1.8-0.4,2.8c-0.2,1-0.4,2.1-0.6,3.2c-0.2,1.1-0.4,2.1-0.6,3
			c-0.2,0.9-0.3,1.8-0.4,2.5c-0.1,0.7-0.2,1.2-0.2,1.5c0,0.5,0,1,0,1.4c0,0.4,0.1,0.8,0.2,1.1c0.1,0.3,0.2,0.6,0.4,0.7
			c0.2,0.2,0.5,0.3,0.8,0.3c0.4,0,0.9-0.1,1.5-0.3c0.6-0.2,1.2-0.5,1.9-0.8c0.7-0.3,1.3-0.7,2-1.2c0.7-0.4,1.3-0.9,2-1.4
			c0.6-0.5,1.2-1,1.7-1.4c0.5-0.5,0.9-0.9,1.2-1.3c0,0.6,0,1.2,0,1.7c0,0.5,0,1,0,1.4c0,0.5,0,0.9,0,1.4c0,0.5,0,1,0,1.6
			c-0.4,0.4-0.9,0.8-1.5,1.3c-0.6,0.5-1.3,0.9-2,1.4c-0.7,0.5-1.5,0.9-2.3,1.3c-0.8,0.4-1.6,0.8-2.5,1.1c-0.8,0.3-1.7,0.6-2.5,0.8
			c-0.8,0.2-1.6,0.3-2.3,0.3c-0.7,0-1.3-0.1-1.8-0.4c-0.5-0.3-0.9-0.7-1.3-1.2c-0.4-0.5-0.7-1.1-0.9-1.8c-0.2-0.7-0.5-1.5-0.7-2.3
			c-0.7,0.9-1.4,1.7-2.1,2.4c-0.7,0.7-1.5,1.4-2.3,1.9c-0.8,0.5-1.5,1-2.3,1.3c-0.8,0.3-1.5,0.5-2.3,0.5c-0.6,0-1.2-0.1-1.7-0.3
			c-0.5-0.2-1-0.5-1.4-1c-0.4-0.5-0.7-1.1-1-1.9c-0.2-0.8-0.4-1.8-0.4-2.9c0-1.4,0.2-3.2,0.5-5.4c0.3-2.2,0.8-4.7,1.3-7.5
			c0-0.3,0.1-0.7,0.2-1.1c0.1-0.5,0.2-1,0.4-1.5c0.2-0.6,0.4-1.1,0.7-1.7c0.3-0.6,0.6-1.1,0.9-1.6c0.4-0.5,0.8-0.8,1.2-1.1
			c0.5-0.3,1-0.5,1.6-0.5c1,0,1.7,0.2,2.1,0.4c0.4,0.2,0.6,0.5,0.6,0.8c-0.2,1-0.3,2.1-0.5,3.3c-0.2,1.2-0.4,2.4-0.6,3.6
			c-0.2,1.2-0.4,2.4-0.6,3.6c-0.2,1.2-0.4,2.2-0.5,3.1c-0.1,0.9-0.3,1.6-0.3,2.2c-0.1,0.6-0.1,0.8-0.1,0.9c0,0.3,0,0.7,0.1,1
			c0.1,0.3,0.2,0.6,0.3,0.8c0.1,0.2,0.3,0.4,0.5,0.6c0.2,0.1,0.4,0.2,0.7,0.2c0.4,0,0.8-0.1,1.2-0.3c0.4-0.2,0.8-0.5,1.2-0.9
			c0.4-0.4,0.7-0.9,1-1.5c0.3-0.6,0.5-1.2,0.7-2l2.7-14.1c0.1-0.4,0.5-0.8,1.1-1.1c0.7-0.3,1.4-0.5,2.2-0.5c0.9,0,1.7,0.2,2.2,0.5
			C313.6,334.5,313.8,334.9,313.8,335.4z"/>
		<path class="st0" d="M319.8,354.4c0-0.8,0-1.8,0.1-2.8c0.1-1.1,0.2-2.2,0.4-3.4c0.2-1.2,0.3-2.4,0.6-3.7c0.2-1.2,0.4-2.4,0.7-3.6
			c0.2-1.1,0.5-2.2,0.7-3.1c0.2-0.9,0.5-1.7,0.7-2.3c0.1-0.4,0.3-0.7,0.4-1c0.1-0.2,0.3-0.4,0.5-0.6c0.2-0.1,0.4-0.2,0.7-0.3
			c0.3,0,0.6-0.1,1.1-0.1c0.5,0,0.9,0,1.1,0.1c0.3,0,0.5,0.2,0.6,0.3c0.1,0.2,0.2,0.4,0.2,0.8c0,0.3,0,0.8,0,1.4c0,0.7,0,1.5,0,2.5
			c0,1,0,1.9,0.1,2.9h0.3c0.4-0.7,0.8-1.6,1.2-2.5c0.5-0.9,1-1.8,1.6-2.6c0.6-0.8,1.3-1.5,2.1-2c0.8-0.5,1.7-0.8,2.7-0.8
			c0.4,0,0.7,0.1,1,0.2s0.6,0.3,0.9,0.5s0.4,0.5,0.6,0.8c0.1,0.3,0.2,0.7,0.2,1.1c0,0.3,0,0.8-0.1,1.3c-0.1,0.6-0.2,1.2-0.3,1.8
			s-0.2,1.2-0.3,1.8c-0.1,0.6-0.1,1.1-0.1,1.5c0,0.7,0.1,1.2,0.2,1.7c0.1,0.4,0.3,0.8,0.5,1.1c0.2,0.3,0.5,0.5,0.7,0.6
			c0.3,0.1,0.5,0.2,0.8,0.2c0.8,0,1.7-0.2,2.6-0.6c0.9-0.4,1.7-0.8,2.4-1.2c0.9-0.5,1.7-1.1,2.5-1.8l-0.4,6.5
			c-0.5,0.3-1,0.7-1.6,1.1c-0.6,0.4-1.3,0.8-2,1.1c-0.7,0.3-1.4,0.6-2.2,0.9c-0.7,0.2-1.5,0.3-2.3,0.3c-1.4,0-2.5-0.3-3.4-0.8
			c-0.9-0.6-1.5-1.3-2-2.2c-0.5-0.9-0.9-1.9-1.1-3.1c-0.2-1.1-0.4-2.3-0.6-3.5h-0.4l-5,13.8c-0.3,0.7-0.5,1.3-0.7,1.8
			c-0.2,0.5-0.5,0.9-0.7,1.2c-0.2,0.3-0.5,0.5-0.8,0.6c-0.3,0.1-0.6,0.2-0.9,0.2c-0.8,0-1.4-0.2-1.8-0.5c-0.5-0.3-0.8-0.8-1.1-1.3
			s-0.4-1.2-0.5-1.9C319.8,355.9,319.8,355.2,319.8,354.4z"/>
		<path class="st0" d="M372.7,353.4c-0.4,0.6-1,1.3-1.7,2.1c-0.7,0.8-1.5,1.6-2.4,2.3c-0.9,0.7-1.8,1.3-2.9,1.8c-1,0.5-2,0.7-3,0.7
			c-1.2,0-2.2-0.4-3-1.2c-0.8-0.8-1.5-1.9-2.1-3.4c-0.4,0.5-1,1-1.6,1.6c-0.6,0.5-1.4,1-2.1,1.5c-0.8,0.4-1.6,0.8-2.4,1.1
			c-0.8,0.3-1.7,0.4-2.5,0.4c-0.9,0-1.8-0.2-2.6-0.5c-0.8-0.4-1.6-0.9-2.2-1.6c-0.6-0.7-1.2-1.5-1.6-2.5c-0.4-1-0.6-2.1-0.6-3.3
			c0-1.4,0.2-2.8,0.6-4.3c0.4-1.5,0.9-2.9,1.6-4.3c0.7-1.4,1.5-2.7,2.4-3.9c0.9-1.2,2-2.3,3.1-3.2c1.1-0.9,2.3-1.7,3.5-2.2
			c1.2-0.5,2.5-0.8,3.8-0.8c0.4,0,0.8,0.1,1,0.2c0.2,0.2,0.4,0.4,0.6,0.6c0.2,0.2,0.3,0.4,0.5,0.6c0.1,0.2,0.3,0.4,0.6,0.4
			c0.2,0.1,0.4,0.2,0.7,0.2c0.2,0,0.5,0,0.7,0c0.2,0,0.4,0,0.6,0c0.2,0,0.4,0,0.6,0c0.3,0,0.5,0,0.8,0.1c0.2,0.1,0.5,0.2,0.6,0.4
			c0.2,0.2,0.3,0.4,0.4,0.8c0.1,0.3,0.2,0.8,0.2,1.4c0,0.9-0.1,1.9-0.3,3c-0.2,1.1-0.4,2.2-0.6,3.3c-0.2,1.1-0.4,2.3-0.6,3.4
			c-0.2,1.1-0.3,2.2-0.3,3.2c0,0.9,0.1,1.5,0.2,2c0.2,0.5,0.5,0.7,1,0.7c0.4,0,0.8-0.1,1.2-0.3c0.4-0.2,0.9-0.4,1.3-0.8
			c0.4-0.3,0.9-0.7,1.3-1.1c0.4-0.4,0.8-0.8,1.2-1.2c0.9-1,1.8-2.1,2.7-3.4L372.7,353.4z M349,351.2c0,0.5,0,0.9,0.1,1.3
			c0.1,0.4,0.2,0.8,0.3,1.2c0.2,0.3,0.4,0.6,0.7,0.8c0.3,0.2,0.6,0.3,1.1,0.3c0.7,0,1.3-0.3,1.9-0.9c0.6-0.6,1-1.3,1.4-2.1
			c0.4-0.8,0.7-1.7,1-2.6c0.2-0.9,0.4-1.6,0.5-2.2l1.7-8.1c-0.8,0-1.5,0.2-2.2,0.6c-0.7,0.4-1.4,0.9-2,1.5s-1.2,1.4-1.8,2.2
			c-0.5,0.8-1,1.7-1.4,2.6c-0.4,0.9-0.7,1.8-0.9,2.8C349.2,349.6,349,350.4,349,351.2z"/>
	</g>
	<g>
		<path class="st0" d="M441.3,471.4c-2.9-0.3-5.8-0.5-8.8-0.8c-3.7-0.3-7.3-0.6-11-0.9c-0.6-0.1-1.4-0.4-1.6-0.8
			c-0.2-0.5,0.1-1.3,0.5-1.7c1.7-1.6,1.8-3.5,1.3-5.6c-0.6-2.2-1-4.5-1.5-6.8c-5.3-0.4-10.5-0.7-15.7-1.1c-1.5-0.1-2.3,0.1-2.6,1.7
			c-0.2,1.3-1,2.7-1,4c0,1.6,0.5,3.1,1,4.7c0.3,0.8,0.8,1.5,1.6,2.9c-7.9-0.6-15-1.1-22.4-1.7c0.3-0.9,0.3-1.6,0.6-1.9
			c2.1-1.7,2.4-4.2,3-6.6c4.5-17.1,8.9-34.2,13.4-51.3c0.8-2.9,1.5-5.9,2.3-8.8c0.5-1.8,1.5-2.8,3.5-2.8c4.7,0.1,9.5,0.2,14.2,0
			c2.5-0.1,3.6,1.1,4.1,3.3c1.5,6.3,3.1,12.7,4.6,19c3.9,16.3,7.8,32.7,11.8,49c0.3,1.2,1.1,2.3,1.7,3.5c0.4,0.7,0.8,1.5,1.2,2.2
			C441.6,470.9,441.5,471.1,441.3,471.4z M411.6,410.8c-0.1,0-0.3,0-0.4,0c-2.1,9.4-4.2,18.8-6.3,28.4c4.5,0.2,8.6,0.4,13,0.6
			C415.8,429.9,413.7,420.3,411.6,410.8z"/>
		<path class="st0" d="M-36.9,448.6c0,4.9-0.1,9.5,0.1,14.2c0,1.3,1,2.5,1.5,3.7c0.4,0.8,0.8,1.6,1.2,2.4c-0.8,0.2-1.6,0.6-2.5,0.7
			c-5.4,0.6-10.8,1.1-16.2,1.6c-0.8,0.1-1.7,0-3,0c0.6-1.2,1.1-2,1.4-2.8c0.7-1.7,1.7-3.5,1.7-5.2c0.1-20.6,0.1-41.2,0-61.8
			c0-1.7-1.1-3.3-1.8-5c-0.3-0.8-0.8-1.4-1.5-2.7c1.4,0,2.3,0,3.1,0c8.7,0,17.3-0.5,26,0c10,0.6,17.8,3.5,20.9,14.2
			c1.5,5.1,1.8,10.4,1.3,15.7c-0.3,3-0.7,6-1.5,9c-1.8,7-6.5,11.6-13.4,13.4c-4.7,1.2-9.7,1.5-14.5,2.2
			C-35,448.3-35.8,448.4-36.9,448.6z M-36.8,433.5c2.7-0.2,5.4-0.2,7.9-0.6c5.4-0.9,7-2.5,7.8-7.8c0.4-2.6,0.5-5.4,0.2-8
			c-0.3-3.6-1.3-7.2-5.5-7.9c-3.4-0.5-6.9-0.4-10.4-0.6C-36.8,417.1-36.8,425-36.8,433.5z"/>
		<path class="st0" d="M303.3,422.1c0,10-0.1,20.1,0.1,30.1c0,1.1,1.2,2.2,1.8,3.4c0.3,0.6,0.5,1.2,0.7,1.9
			c-0.6,0.1-1.2,0.3-1.8,0.3c-5.1-0.2-10.2-0.4-15.3-0.7c-1,0-2-0.3-3-0.4c0.1-0.5,0.1-0.7,0.2-0.8c3-2.4,2.7-5.7,2.7-9
			c-0.1-15-0.1-30-0.1-45c0-2.5-0.1-4.8-2.2-6.5c-0.3-0.3-0.3-0.9-0.6-1.7c4.3,0,8.3,0.2,12.2-0.1c3.4-0.2,5.4,0.9,6.9,4.1
			c4.7,9.9,9.8,19.6,14.8,29.4c0.4,0.9,0.9,1.7,1.8,2.5c0-3.7,0-7.3,0-11c0-6-0.1-11.9-0.1-17.9c0-1.9-0.2-3.6-1.8-4.9
			c-0.5-0.4-0.6-1.2-1-2c6.8,0,13.3,0,20.3,0c-0.5,0.9-0.9,1.6-1.2,2.3c-0.6,1.4-1.6,2.9-1.6,4.3c0,17.6,0.1,35.2,0.2,52.9
			c0,1.1,0.8,2.2,1.3,3.3c0.4,0.8,0.9,1.5,1.7,2.6c-2.4,0-4.1,0.1-5.9,0c-2.8-0.1-5.5-0.6-8.3-0.6c-2.3,0.1-3.5-1-4.4-2.8
			c-5.3-10.7-10.7-21.3-16-32c-0.3-0.6-0.7-1.2-1.1-1.9C303.5,422,303.4,422.1,303.3,422.1z"/>
		<path class="st0" d="M30.7,460.1c4.5-3.9,2.1-8,1-12.4c-3.3,0.2-6.6,0.3-9.9,0.5c-1.8,0.1-3.6,0.3-5.4,0.3c-1.2,0-1.6,0.6-1.7,1.7
			c-0.3,1.9-0.7,3.7-1.1,5.5c-0.4,1.9-0.4,3.7,1.3,5.2c0.4,0.4,0.5,1.1,1,2c-7.1,0.5-13.9,1-20.7,1.5c0-0.7,0-1.1,0.1-1.2
			c3.2-3.7,3.5-8.5,4.6-12.9c4.5-17.5,8.8-35,13.2-52.5c0.9-3.7,1.3-3.9,5-3.9c3.9,0,7.9,0,11.8,0c2.9,0,3.5,0.4,4.2,3.3
			c2,7.6,4,15.3,6,22.9c3,11.4,6,22.7,9.1,34c0.3,1.3,1.4,2.3,2.1,3.5c0.2,0.4,0.6,1,0.5,1.3c-0.1,0.3-0.7,0.7-1.2,0.7
			c-6,0.4-12,0.7-18,1.1C32.1,460.6,31.7,460.4,30.7,460.1z M23.8,409.1c-0.1,0-0.3,0-0.4-0.1c-2,8.6-3.9,17.1-5.9,25.6
			c4.1,0,8,0,12.1,0C27.6,425.9,25.7,417.5,23.8,409.1z"/>
		<path class="st0" d="M224.9,424.4c0.1-5.9,0.6-11.7,2.6-17.3c3.1-8.7,9.5-13.1,18.4-14.2c5-0.6,9.9-0.3,14.6,1.3
			c7.5,2.5,11.5,8.2,13.6,15.5c1.4,5.1,1.7,10.4,1.7,15.7c0,5.2-0.3,10.2-1.7,15.3c-2.7,9.9-9.3,15.3-19.5,16.1
			c-6.4,0.5-12.5-0.2-18.1-3.4c-7-4.1-9.5-10.9-10.7-18.3C225.2,431.5,225.1,428,224.9,424.4z M260.8,425.1
			c-0.6-4.4-0.9-8.9-1.9-13.2c-1.1-4.9-4.2-6.9-9-6.8c-4.3,0.1-7.3,2.6-8.3,7.2c-0.7,3.2-1.1,6.4-1.2,9.7
			c-0.2,5.6-0.3,11.3,1.8,16.8c1.5,4,4.4,5.8,8.8,5.6c4.2-0.2,6.9-2.1,7.9-6.4C259.8,433.8,260.2,429.4,260.8,425.1z"/>
		<path class="st0" d="M158,455.7c-6.8,0-13.5,0-20.4,0c0.1-0.4,0.1-0.7,0.3-0.9c3.6-3.2,1.3-6.7,0.5-10.1c-0.1-0.3-0.9-0.7-1.3-0.7
			c-4.7,0-9.5,0.1-14.2,0.3c-0.6,0-1.5,0.9-1.8,1.6c-0.5,0.9-0.6,2.1-0.9,3.1c-0.6,2.1-0.7,4,1.2,5.6c0.3,0.3,0.4,0.8,0.9,1.9
			c-7.2,0-14,0-20.8,0c4.9-8.1,5.9-17.6,8.6-26.5c2.8-9,5.2-18.1,7.7-27.2c0.6-2.3,1.3-4.6,2-6.9c0.4-1.5,1.4-2.2,3-2.2
			c4.7,0.1,9.3,0.1,14,0c2,0,2.9,0.9,3.4,2.7c3,10.6,6,21.2,9,31.8c2.1,7.5,4.2,14.9,6.4,22.4c0.3,1,1,1.9,1.6,2.8
			c0.4,0.6,0.8,1.1,1.2,1.7C158.2,455.2,158.1,455.5,158,455.7z M130.1,408c-0.1,0-0.3,0-0.4,0c-2,7.9-4,15.8-5.9,23.8
			c4.2,0,8.1,0,12.2,0C133.9,423.6,132,415.8,130.1,408z"/>
		<path class="st0" d="M214.5,418.1c-0.2,0.5-0.2,1.1-0.5,1.3c-2.4,1.7-2.3,4.2-2.3,6.7c0.1,7.4-0.1,14.7,0.1,22.1
			c0,2.8-1.1,4.5-3.6,5.5c-6.2,2.5-12.7,3-19.2,2.6c-3.1-0.2-6.2-0.7-9.2-1.5c-7.2-1.9-11.8-6.7-13.9-13.7
			c-3.2-10.8-3.2-21.8,0-32.6c2-6.9,6.7-11.5,13.5-13.7c8.9-2.9,17.8-2.8,26.7,0.1c3.8,1.3,4.2,2,3.3,5.9c-0.3,1.2-0.5,2.4-0.8,3.6
			c-0.5,2.5-1.4,3.1-3.8,2.4c-4.8-1.3-9.7-1.8-14.6-1.1c-5.7,0.8-9.1,3.8-10.2,9.4c-1.3,6.4-1.3,12.8,0,19.2
			c1.3,6.6,5.3,9.8,12.1,10c6.3,0.1,6.3,0.1,6.3-6.1c0-4.4-0.1-8.7,0-13.1c0-2-0.2-3.7-1.9-5.1c-0.4-0.3-0.5-1.1-0.6-1.7
			c0-0.1,0.7-0.5,1.1-0.5c5.7,0,11.4,0.1,17,0.2C214,417.8,214.1,417.9,214.5,418.1z"/>
		<path class="st0" d="M99.9,409.5c-0.9-0.3-1.5-0.3-1.8-0.7c-1.8-2.1-4.2-2.1-6.6-2c-2.3,0.1-4.7,0-7.3,0c0,0.9,0,1.7,0,2.5
			c0,13.4,0,26.8-0.1,40.2c0,2.4,0,4.7,2.2,6.3c0.3,0.3,0.5,0.8,0.9,1.8c-7.1,0.3-13.8,0.7-21.2,1c0.6-1.1,1-1.8,1.3-2.5
			c0.6-1.2,1.5-2.4,1.6-3.7c0.2-14.7,0.2-29.4,0.3-44.1c0-0.4-0.1-0.7-0.2-1.5c-5.2,0.7-10.7-1.4-15.4,3.4c-0.2-1.1-0.4-1.6-0.4-2.2
			c0-3.7,0-7.4,0-11.1c0-2.7,0.6-3.2,3.2-3.2c13.3,0,26.7-0.1,40-0.1c3,0,3.4,0.4,3.4,3.4C99.9,401.1,99.9,405.1,99.9,409.5z"/>
		<path class="st0" d="M372.7,462.4c-2.6,0-5.1,0.1-7.5,0c-3.8-0.2-7.7-0.5-11.5-0.9c-0.5,0-1-0.3-1.5-0.5c0.2-0.6,0.3-1.3,0.7-1.7
			c1.7-1.4,1.9-3.3,1.9-5.3c-0.1-17.6-0.1-35.2-0.2-52.8c0-2-0.2-3.9-1.9-5.3c-0.4-0.4-0.6-1.1-1-1.9c7.1,0,13.8,0,20.8,0
			c-0.4,0.8-0.5,1.5-0.9,1.9c-1.7,1.5-1.9,3.4-1.8,5.5c0,17.3,0,34.6-0.1,52c0,2.8,0,5.5,2.3,7.6
			C372.3,461.2,372.4,461.8,372.7,462.4z"/>
		<path class="st0" d="M161.2,481.6c0.9,1.6,1.7,3.1,2.7,4.9c-2,0.6-3.5,0.6-4.4-1.5c-0.5-1.2-1.3-2.2-2-3.2
			c-0.2,0.1-0.4,0.2-0.7,0.3c0,1.5,0,3,0,4.4c-3.1,1-3.5,0.7-3.5-2.1c0-3.7,0-7.4,0-11.1c0-1.3,0.4-1.9,1.8-1.8
			c0.9,0.1,1.9-0.1,2.8,0c2.3,0.2,4.8,0.2,5.7,3.1C164.4,477.2,163.7,479.5,161.2,481.6z M156.8,479.2c1.2-0.3,2.5-0.4,3.1-1
			c0.5-0.5,0.5-2.2,0-2.8c-0.6-0.7-1.9-0.9-3.2-1.4C156.8,475.9,156.8,477.3,156.8,479.2z"/>
		<path class="st0" d="M286.6,486.6c1-3.8,1.9-7.3,2.9-10.9c0.2-0.6,0.4-1.3,0.5-1.9c0.3-1.4,0.6-2.5,2.6-2.5c1.9,0,2.7,0.6,3.1,2.5
			c1,4.2,2.2,8.4,3.3,12.7c-2,0.6-3.5,0.8-4.1-1.7c-0.1-0.5-1.4-1-2.1-1c-0.7,0-2,0.5-2,0.9C290.4,487.1,288.8,487,286.6,486.6z
			 M293,475.7c-0.2,0-0.3,0-0.5,0c-0.4,1.6-0.8,3.2-1.2,4.9c1,0,1.8,0,2.7,0C293.7,478.9,293.3,477.3,293,475.7z"/>
		<path class="st0" d="M225.4,474.3c0,1.2,0,2.1,0,3c1.7,0.3,3.3,0.5,4.9,0.9c0.2,0,0,1.3,0,2.2c-1.8,0-3.3,0-4.9,0
			c0,1.2,0,2.1,0,3.3c1.7,0,3.3,0,4.9,0c0.9,2.7,0.6,3-1.9,3c-1.7,0-3.4,0.1-5-0.1c-0.6-0.1-1.5-0.9-1.5-1.5
			c-0.1-4.1,0-8.1-0.1-12.2c0-1.2,0.4-1.7,1.7-1.7c1.8,0.1,3.6,0,5.5,0c1.2,0,1.7,0.5,1.7,1.7c0,1.3-0.8,1.3-1.7,1.3
			C227.8,474.3,226.7,474.3,225.4,474.3z"/>
		<path class="st0" d="M186.6,471.6c3.4-0.6,3.6-0.4,4.2,2.4c0.6,2.7,1.1,5.3,2.1,7.9c0.6-2.7,1.1-5.5,1.8-8.2c0.6-2.7,1.1-3,4-2
			c-1.2,4.5-2.3,9.1-3.5,13.6c-0.4,1.4-1.4,1.6-2.5,1.3c-0.9-0.2-2.2-0.6-2.4-1.1C188.9,481,187.8,476.4,186.6,471.6z"/>
		<path class="st0" d="M124.4,474.3c0,1.2,0,2.1,0,3.2c1.6,0,3.1,0,4.7,0c0,1,0,1.7,0,2.7c-1.6,0-3,0-4.7,0c0,1.2,0,2.2,0,3.4
			c1.6,0,3.2,0,4.8,0c0.8,2.8,0.6,3.1-1.9,3c-2.1,0-4.8,0.5-6-0.6c-1-0.9-0.4-3.8-0.4-5.8c0-2.4,0-4.8,0-7.2c0-1.3,0.4-1.9,1.7-1.8
			c1.8,0.1,3.6-0.1,5.4,0.1c0.6,0.1,1.3,0.9,1.5,1.5c0.3,1.1-0.5,1.5-1.5,1.4C126.8,474.3,125.7,474.3,124.4,474.3z"/>
		<path class="st0" d="M258,483.6c1.6,0,2.9,0,4.1,0c1.1,0,1.6,0.3,1.6,1.5c0,1.2-0.4,1.7-1.6,1.7c-2.1-0.1-4.2-0.1-6.3,0
			c-1.2,0-1.8-0.4-1.6-1.7c0.2-1,0.4-2,0.9-2.8c1.4-2.5,2.9-4.8,4.6-7.7c-1.5,0-2.7,0.2-3.8-0.1c-0.6-0.1-1.3-0.8-1.5-1.4
			c-0.3-1.1,0.2-1.8,1.5-1.7c1.8,0.1,3.6,0,5.4,0c2.5,0,3.2,1.1,1.9,3.4c-1.4,2.5-2.9,4.8-4.4,7.3
			C258.6,482.4,258.4,482.8,258,483.6z"/>
		<path class="st0" d="M96.5,474.5c-1.8,0.1-4.1-1-5.1,1.3c-1,2.3-1.2,4.9,0.3,6.9c0.8,1,3,1,4.5,1.5c0.1-0.2,0.2-0.4,0.3-0.6
			c0.2,0.7,0.4,1.5,0.7,2.3c-2.3,1.4-4.6,1.4-6.9,0.3c-2.2-1-2.9-3-2.9-5.2c0-1.8-0.2-3.7,0.2-5.4c0.8-3.7,4.6-5.5,8.2-4
			C97.6,472.3,96.9,473.4,96.5,474.5z"/>
	</g>
</g>
</svg>
